<svg xmlns="http://www.w3.org/2000/svg" width="149.852" height="105.697" viewBox="0 0 149.852 105.697">
  <g id="Group_7535" data-name="Group 7535" transform="translate(-810.148 -261.543)">
    <g id="clutch-co-vector-logo" transform="translate(810.148 261.543)">
      <path id="Path_9327" data-name="Path 9327" d="M177,235.9h6.893v42.557H177Z" transform="translate(-138.039 -235.9)" fill="#fff"/>
      <path id="Path_9328" data-name="Path 9328" d="M243.881,306.385c0,6.593-5.395,7.193-7.193,7.193-4.2,0-4.8-3.9-4.8-5.994V291.1H225v16.184c0,3.9,1.2,7.493,3.6,9.59a10.849,10.849,0,0,0,8.092,3c2.4,0,5.395-.6,7.193-2.4v2.4h6.893V291.1h-6.893Z" transform="translate(-174.05 -277.314)" fill="#fff"/>
      <path id="Path_9329" data-name="Path 9329" d="M346.188,249.1H339.3v10.49H334.2v6.593H339.3v22.178h6.893V266.183h5.095V259.59h-5.095Z" transform="translate(-255.977 -245.803)" fill="#fff"/>
      <path id="Path_9330" data-name="Path 9330" d="M427.78,309.379a9.462,9.462,0,0,1-5.694,2.1c-4.8,0-8.092-3.6-8.092-8.392a7.709,7.709,0,0,1,8.092-8.092,7.911,7.911,0,0,1,5.694,2.1l.9.9,4.8-4.5-1.2-.9a15.367,15.367,0,0,0-10.19-3.9,14.685,14.685,0,1,0,0,29.371,15.367,15.367,0,0,0,10.19-3.9l1.2-.9-4.8-4.8Z" transform="translate(-310.896 -275.513)" fill="#fff"/>
      <path id="Path_9331" data-name="Path 9331" d="M545.979,252.084a9.512,9.512,0,0,0-7.493-3,9.014,9.014,0,0,0-6.593,2.4V235.9H525v42.557h6.893V262.573c0-6.593,4.5-7.193,6.294-7.193,4.2,0,3.9,3.9,3.9,5.994v16.783h6.893V261.674C548.976,257.778,548.077,254.182,545.979,252.084Z" transform="translate(-399.125 -235.9)" fill="#fff"/>
      <ellipse id="Ellipse_242" data-name="Ellipse 242" cx="4.795" cy="4.795" rx="4.795" ry="4.795" transform="translate(106.095 23.077)" fill="#fff"/>
      <path id="Path_9332" data-name="Path 9332" d="M50.371,272.448a14.054,14.054,0,0,1-9.89,3.9c-7.493,0-12.887-5.994-12.887-14.086s5.395-14.086,13.187-14.086a14.1,14.1,0,0,1,9.89,4.2l.9.9,4.5-4.5-.9-.9a20.184,20.184,0,0,0-14.386-5.994c-11.389-.3-19.78,8.691-19.78,20.38s8.392,20.679,19.481,20.679a19.683,19.683,0,0,0,14.386-5.994l.9-.9-4.5-4.5Z" transform="translate(-21 -240.38)" fill="#fff"/>
    </g>
    <g id="Group_7530" data-name="Group 7530" transform="translate(824 318.418)">
      <path id="Path_9333" data-name="Path 9333" d="M10.779,0,8.234,7.831H0l6.662,4.84L4.117,20.5l6.662-4.84,6.662,4.84L14.9,12.671l6.662-4.84H13.323Z" transform="translate(0.001 1.254)" fill="#fcd010"/>
      <path id="Path_9334" data-name="Path 9334" d="M121.744,0,119.2,7.831h-8.235l6.662,4.84L115.083,20.5l6.662-4.84,6.662,4.84-2.544-7.832,6.662-4.84h-8.235Z" transform="translate(-85.634 1.254)" fill="#fcd010"/>
      <path id="Path_9335" data-name="Path 9335" d="M232.71,0l-2.545,7.831H221.93l6.662,4.84L226.048,20.5l6.662-4.84,6.662,4.84-2.545-7.832,6.662-4.84h-8.235Z" transform="translate(-171.268 1.254)" fill="#fcd010"/>
      <path id="Path_9336" data-name="Path 9336" d="M343.674,0,341.13,7.831H332.9l6.662,4.84L337.013,20.5l6.662-4.84,6.662,4.84-2.545-7.832,6.662-4.84h-8.235Z" transform="translate(-256.901 1.254)" fill="#fcd010"/>
      <path id="Path_9337" data-name="Path 9337" d="M454.64,0,452.1,7.831h-8.235l6.662,4.84L447.978,20.5l6.662-4.84L461.3,20.5l-2.544-7.832,6.662-4.84h-8.235Z" transform="translate(-342.535 1.254)" fill="#fcd010"/>
    </g>
    <path id="Path_9417" data-name="Path 9417" d="M-56.21-1.76a6.655,6.655,0,0,0,5.14,2c3.22,0,5.34-1.78,5.34-4.6a4.153,4.153,0,0,0-4.28-4.3,4.6,4.6,0,0,0-3,1.1V-10.9h6.38v-2.44h-9.16v7.62l1.98.54a3.845,3.845,0,0,1,2.8-1.1c1.52,0,2.4.82,2.4,2.04,0,1.1-.9,2-2.48,2a4.871,4.871,0,0,1-3.56-1.44Zm11.86-4.9c0,3.44,1.7,6.9,5.52,6.9,3.8,0,5.52-3.46,5.52-6.9s-1.72-6.88-5.52-6.88C-42.65-13.54-44.35-10.1-44.35-6.66Zm8.14,0c0,2.46-.72,4.38-2.62,4.38-1.92,0-2.64-1.92-2.64-4.38s.72-4.36,2.64-4.36C-36.93-11.02-36.21-9.12-36.21-6.66Zm9.5.7h3.58V-7.54h-3.58v-3.9h-1.74v3.9h-3.6v1.58h3.6V-1.9h1.74ZM-8.57,0h3.26l-3-5.08A3.828,3.828,0,0,0-5.39-9.04a4.154,4.154,0,0,0-4.48-4.3h-6.24V0h2.84V-4.78h2.08Zm.28-9.06a1.841,1.841,0,0,1-2,1.84h-2.98V-10.9h2.98A1.841,1.841,0,0,1-8.29-9.06Zm3.76,4.22A4.892,4.892,0,0,0,.63.24,5.954,5.954,0,0,0,4.61-1.1L3.49-2.74a3.95,3.95,0,0,1-2.58.96A2.6,2.6,0,0,1-1.87-4.02H5.31v-.56C5.31-7.74,3.35-9.9.47-9.9A4.916,4.916,0,0,0-4.53-4.84Zm5-3.04A2.238,2.238,0,0,1,2.85-5.74H-1.91A2.321,2.321,0,0,1,.47-7.88ZM9.65,0h2.74l3.88-9.66H13.53L11.01-2.94,8.49-9.66H5.77Zm9.02-11.08a1.519,1.519,0,0,0,1.52-1.52,1.519,1.519,0,0,0-1.52-1.52,1.532,1.532,0,0,0-1.52,1.52A1.532,1.532,0,0,0,18.67-11.08ZM17.41,0h2.54V-9.66H17.41Zm4.44-4.84A4.892,4.892,0,0,0,27.01.24,5.954,5.954,0,0,0,30.99-1.1L29.87-2.74a3.95,3.95,0,0,1-2.58.96,2.6,2.6,0,0,1-2.78-2.24h7.18v-.56c0-3.16-1.96-5.32-4.84-5.32A4.916,4.916,0,0,0,21.85-4.84Zm5-3.04a2.238,2.238,0,0,1,2.38,2.14H24.47A2.321,2.321,0,0,1,26.85-7.88ZM42.01,0h2.7l2.94-9.66H45.01l-1.8,6.5-2.12-6.5H38.83l-2.12,6.5-1.8-6.5H32.27L35.21,0h2.72l2.04-6.58Zm6.06-1.26A6.5,6.5,0,0,0,52.39.24c2.68,0,4.18-1.32,4.18-3.1,0-2.4-2.22-2.84-3.88-3.16-1.08-.22-1.84-.44-1.84-1.04,0-.56.6-.9,1.52-.9a4.075,4.075,0,0,1,2.86,1.12l1-1.74A6.07,6.07,0,0,0,52.35-9.9c-2.54,0-3.96,1.42-3.96,3.04,0,2.3,2.14,2.7,3.8,3.02,1.1.22,1.94.46,1.94,1.14,0,.6-.52.98-1.62.98a5.529,5.529,0,0,1-3.34-1.32Z" transform="translate(885 367)" fill="#fcd010"/>
  </g>
</svg>
