<svg xmlns="http://www.w3.org/2000/svg" width="189.576" height="105.697" viewBox="0 0 189.576 105.697">
  <g id="Group_7533" data-name="Group 7533" transform="translate(-780 -261.543)">
    <g id="UpCity-Logo-Primary" transform="translate(779 260.543)">
      <path id="Path_9408" data-name="Path 9408" d="M23.159,5.782a15.105,15.105,0,0,1,9.1,5.6,15.942,15.942,0,0,1,3.382,9.8c0,2.391-1.341,6.065-3.79,10.555.758,1.283,1.574,2.682,2.507,4.2,3.091-5.365,5.423-10.788,5.423-14.753a20.4,20.4,0,0,0-3.79-11.954,19.48,19.48,0,0,0-9.039-7A17.133,17.133,0,0,0,20.418,1C9.689,1,1,10.039,1,21.176c0,8.106,9.738,22.159,15.511,29.8a4.841,4.841,0,0,0,7.814,0c1.225-1.574,2.566-3.44,4.024-5.481-.875-1.283-1.691-2.566-2.507-3.849-1.458,2.1-3.032,4.257-4.723,6.531a.887.887,0,0,1-1.341,0C10.622,36.1,5.2,26.016,5.2,21.176A15.485,15.485,0,0,1,20.418,5.49,14.589,14.589,0,0,1,23.159,5.782Z" transform="translate(0 0)" fill="#fff"/>
      <path id="Path_9409" data-name="Path 9409" d="M45.9,45.493c1.4,2.041,2.8,3.907,4.024,5.481a4.841,4.841,0,0,0,7.814,0c5.715-7.639,15.453-21.751,15.453-29.8C73.195,10.039,64.506,1,53.777,1a17.65,17.65,0,0,0-6.589,1.225,22.3,22.3,0,0,1,3.849,3.557,14.09,14.09,0,0,1,2.741-.292A15.448,15.448,0,0,1,69,21.176c0,4.84-5.423,14.928-14.578,27a.887.887,0,0,1-1.341,0c-1.691-2.274-3.266-4.432-4.723-6.531a110.768,110.768,0,0,1-6.123-9.913C39.781,27.183,38.5,23.509,38.5,21.176a15.816,15.816,0,0,1,3.382-9.8,12.8,12.8,0,0,0-3.79-2.158A20.4,20.4,0,0,0,34.3,21.176c0,3.965,2.333,9.388,5.423,14.753C41.647,39.253,43.805,42.519,45.9,45.493Z" transform="translate(-13.882 0)" fill="#fff"/>
      <path id="Path_9410" data-name="Path 9410" d="M138.025,27.116V43.56c0,7.581-4.024,11.546-11.779,11.546-7.814,0-11.546-3.907-11.546-11.6V26.883a1.98,1.98,0,0,1,2.041-1.983,2.047,2.047,0,0,1,2.158,1.983v16.5c0,5.656,2.333,7.989,7.347,7.989,4.957,0,7.581-2.216,7.581-7.872V27.116a2.108,2.108,0,0,1,2.041-2.216A2.13,2.13,0,0,1,138.025,27.116Z" transform="translate(-47.398 -9.963)" fill="#fff"/>
      <path id="Path_9411" data-name="Path 9411" d="M182.21,51.23c0,6.939-3.79,10.671-10.555,10.671a13.2,13.2,0,0,1-4.373-.7v6.123a1.9,1.9,0,0,1-2.041,1.924,1.934,1.934,0,0,1-2.041-1.924V42.949a1.684,1.684,0,0,1,1.749-1.749c1.108,0,1.633.7,1.749,1.749l.117,1.574a7.254,7.254,0,0,1,6.473-3.324C178.828,41.2,182.21,44.407,182.21,51.23Zm-4.082.233c0-4.723-2.1-6.764-5.54-6.764a5.005,5.005,0,0,0-5.307,4.957h-.058v7.931a10.4,10.4,0,0,0,4.2.933C175.562,58.461,178.128,56.42,178.128,51.463Z" transform="translate(-67.616 -16.758)" fill="#fff"/>
      <path id="Path_9412" data-name="Path 9412" d="M227.958,32.772a1.636,1.636,0,0,1-1.749,1.691A1.59,1.59,0,0,1,224.4,33.18c-.641-1.458-1.924-4.607-7-4.607-5.715,0-9.447,3.615-9.447,11.08,0,7.814,4.024,11.663,10.555,11.663a16.516,16.516,0,0,0,6.414-1.341,4.15,4.15,0,0,1,1.225-.233,1.608,1.608,0,0,1,1.633,1.691,2.006,2.006,0,0,1-1.166,1.924,19.748,19.748,0,0,1-8.572,1.749c-8.864,0-14.345-5.248-14.345-15.161,0-9.738,5.365-15.045,13.587-15.045C224.693,24.9,227.958,29.273,227.958,32.772Z" transform="translate(-84.499 -9.963)" fill="#fff"/>
      <path id="Path_9413" data-name="Path 9413" d="M252.8,28.641a2.606,2.606,0,0,1,2.624-2.741,2.573,2.573,0,0,1,2.624,2.741,2.573,2.573,0,0,1-2.624,2.741A2.606,2.606,0,0,1,252.8,28.641Zm4.548,7.989V53.54a1.9,1.9,0,0,1-2.041,1.924,1.934,1.934,0,0,1-2.041-1.924V36.63a1.934,1.934,0,0,1,2.041-1.924A1.969,1.969,0,0,1,257.348,36.63Z" transform="translate(-104.967 -10.38)" fill="#fff"/>
      <path id="Path_9414" data-name="Path 9414" d="M274.739,40.913V51.76c0,2.041.933,2.566,2.333,2.566.35,0,.7-.058,1.4-.117a1.474,1.474,0,0,1,1.749,1.574,1.749,1.749,0,0,1-1.458,1.808,19.142,19.142,0,0,1-2.682.233c-3.557,0-5.306-1.283-5.306-5.773V40.913h-2.041a1.644,1.644,0,0,1-1.633-1.691,1.609,1.609,0,0,1,1.633-1.691h2.041V33.624a1.934,1.934,0,0,1,2.041-1.924,1.884,1.884,0,0,1,1.983,1.924v3.907h3.849a1.577,1.577,0,0,1,1.633,1.691,1.609,1.609,0,0,1-1.633,1.691Z" transform="translate(-110.929 -12.798)" fill="#fff"/>
      <path id="Path_9415" data-name="Path 9415" d="M312.51,42.749a2.617,2.617,0,0,1-.292,1.108l-8.63,20.585c-1.458,3.44-3.615,4.607-6.764,4.607-.7,0-1.05-.058-1.341-.058a1.7,1.7,0,0,1-1.691-1.749,1.547,1.547,0,0,1,1.633-1.691c.292,0,.583.058,1.225.058,1.983,0,3.149-.641,3.732-2.216l.875-2.216-7.464-17.261a2.616,2.616,0,0,1-.292-1.108A1.806,1.806,0,0,1,295.424,41a2.1,2.1,0,0,1,1.924,1.341l5.831,14.053,5.6-14.112a1.892,1.892,0,0,1,1.924-1.225A1.674,1.674,0,0,1,312.51,42.749Z" transform="translate(-121.934 -16.675)" fill="#fff"/>
    </g>
    <g id="Group_7532" data-name="Group 7532" transform="translate(819 318.418)">
      <path id="Path_9333" data-name="Path 9333" d="M10.779,0,8.234,7.831H0l6.662,4.84L4.117,20.5l6.662-4.84,6.662,4.84L14.9,12.671l6.662-4.84H13.323Z" transform="translate(0.001 1.254)" fill="#fcd010"/>
      <path id="Path_9334" data-name="Path 9334" d="M121.744,0,119.2,7.831h-8.235l6.662,4.84L115.083,20.5l6.662-4.84,6.662,4.84-2.544-7.832,6.662-4.84h-8.235Z" transform="translate(-85.634 1.254)" fill="#fcd010"/>
      <path id="Path_9335" data-name="Path 9335" d="M232.71,0l-2.545,7.831H221.93l6.662,4.84L226.048,20.5l6.662-4.84,6.662,4.84-2.545-7.832,6.662-4.84h-8.235Z" transform="translate(-171.268 1.254)" fill="#fcd010"/>
      <path id="Path_9336" data-name="Path 9336" d="M343.674,0,341.13,7.831H332.9l6.662,4.84L337.013,20.5l6.662-4.84,6.662,4.84-2.545-7.832,6.662-4.84h-8.235Z" transform="translate(-256.901 1.254)" fill="#fcd010"/>
      <path id="Path_9337" data-name="Path 9337" d="M454.64,0,452.1,7.831h-8.235l6.662,4.84L447.978,20.5l6.662-4.84L461.3,20.5l-2.544-7.832,6.662-4.84h-8.235Z" transform="translate(-342.535 1.254)" fill="#fcd010"/>
    </g>
    <path id="Path_9416" data-name="Path 9416" d="M.98-1.76a6.655,6.655,0,0,0,5.14,2c3.22,0,5.34-1.78,5.34-4.6a4.153,4.153,0,0,0-4.28-4.3,4.6,4.6,0,0,0-3,1.1V-10.9h6.38v-2.44H1.4v7.62l1.98.54a3.845,3.845,0,0,1,2.8-1.1c1.52,0,2.4.82,2.4,2.04,0,1.1-.9,2-2.48,2A4.871,4.871,0,0,1,2.54-3.68Zm11.86-4.9c0,3.44,1.7,6.9,5.52,6.9,3.8,0,5.52-3.46,5.52-6.9s-1.72-6.88-5.52-6.88C14.54-13.54,12.84-10.1,12.84-6.66Zm8.14,0c0,2.46-.72,4.38-2.62,4.38-1.92,0-2.64-1.92-2.64-4.38s.72-4.36,2.64-4.36C20.26-11.02,20.98-9.12,20.98-6.66Zm9.5.7h3.58V-7.54H30.48v-3.9H28.74v3.9h-3.6v1.58h3.6V-1.9h1.74ZM48.62,0h3.26l-3-5.08A3.828,3.828,0,0,0,51.8-9.04a4.154,4.154,0,0,0-4.48-4.3H41.08V0h2.84V-4.78H46Zm.28-9.06a1.841,1.841,0,0,1-2,1.84H43.92V-10.9H46.9A1.841,1.841,0,0,1,48.9-9.06Zm3.76,4.22A4.892,4.892,0,0,0,57.82.24,5.954,5.954,0,0,0,61.8-1.1L60.68-2.74a3.95,3.95,0,0,1-2.58.96,2.6,2.6,0,0,1-2.78-2.24H62.5v-.56c0-3.16-1.96-5.32-4.84-5.32A4.916,4.916,0,0,0,52.66-4.84Zm5-3.04a2.238,2.238,0,0,1,2.38,2.14H55.28A2.321,2.321,0,0,1,57.66-7.88ZM66.84,0h2.74l3.88-9.66H70.72L68.2-2.94,65.68-9.66H62.96Zm9.02-11.08a1.519,1.519,0,0,0,1.52-1.52,1.519,1.519,0,0,0-1.52-1.52,1.532,1.532,0,0,0-1.52,1.52A1.532,1.532,0,0,0,75.86-11.08ZM74.6,0h2.54V-9.66H74.6Zm4.44-4.84A4.892,4.892,0,0,0,84.2.24,5.953,5.953,0,0,0,88.18-1.1L87.06-2.74a3.95,3.95,0,0,1-2.58.96A2.6,2.6,0,0,1,81.7-4.02h7.18v-.56c0-3.16-1.96-5.32-4.84-5.32A4.916,4.916,0,0,0,79.04-4.84Zm5-3.04a2.238,2.238,0,0,1,2.38,2.14H81.66A2.321,2.321,0,0,1,84.04-7.88ZM99.2,0h2.7l2.94-9.66H102.2l-1.8,6.5-2.12-6.5H96.02L93.9-3.16l-1.8-6.5H89.46L92.4,0h2.72l2.04-6.58Zm6.06-1.26a6.5,6.5,0,0,0,4.32,1.5c2.68,0,4.18-1.32,4.18-3.1,0-2.4-2.22-2.84-3.88-3.16-1.08-.22-1.84-.44-1.84-1.04,0-.56.6-.9,1.52-.9a4.075,4.075,0,0,1,2.86,1.12l1-1.74a6.07,6.07,0,0,0-3.88-1.32c-2.54,0-3.96,1.42-3.96,3.04,0,2.3,2.14,2.7,3.8,3.02,1.1.22,1.94.46,1.94,1.14,0,.6-.52.98-1.62.98a5.529,5.529,0,0,1-3.34-1.32Z" transform="translate(824 367)" fill="#fcd010"/>
  </g>
</svg>
