<svg xmlns="http://www.w3.org/2000/svg" width="157.838" height="105.697" viewBox="0 0 157.838 105.697">
  <g id="Group_7529" data-name="Group 7529" transform="translate(-280 -261.543)">
    <g id="Google_2015_logo" transform="translate(280 261.543)">
      <path id="Path_9339" data-name="Path 9339" d="M97.3,37.983A13.024,13.024,0,1,1,84.274,25,12.823,12.823,0,0,1,97.3,37.983Zm-5.7,0c0-4.671-3.389-7.867-7.323-7.867s-7.323,3.2-7.323,7.867c0,4.624,3.389,7.867,7.323,7.867S91.6,42.6,91.6,37.983Z" transform="translate(-29.753 -10.641)" fill="#fff"/>
      <path id="Path_9340" data-name="Path 9340" d="M145.3,37.983A13.024,13.024,0,1,1,132.274,25,12.823,12.823,0,0,1,145.3,37.983Zm-5.7,0c0-4.671-3.389-7.867-7.323-7.867s-7.323,3.2-7.323,7.867c0,4.624,3.389,7.867,7.323,7.867S139.6,42.6,139.6,37.983Z" transform="translate(-49.656 -10.641)" fill="#fff"/>
      <path id="Path_9341" data-name="Path 9341" d="M192.12,25.784V49.094c0,9.588-5.655,13.5-12.34,13.5a12.364,12.364,0,0,1-11.508-7.651l4.964-2.066a7.172,7.172,0,0,0,6.539,4.607c4.279,0,6.931-2.64,6.931-7.61V48.011h-.2a8.84,8.84,0,0,1-6.837,2.95A12.853,12.853,0,0,1,167.23,38.03c0-7.329,5.947-13.03,12.439-13.03a9,9,0,0,1,6.837,2.9h.2V25.79h5.415ZM187.109,38.03c0-4.572-3.05-7.914-6.931-7.914-3.934,0-7.229,3.342-7.229,7.914,0,4.525,3.3,7.82,7.229,7.82C184.059,45.851,187.109,42.555,187.109,38.03Z" transform="translate(-69.55 -10.641)" fill="#fff"/>
      <path id="Path_9342" data-name="Path 9342" d="M221.061,3V41.049H215.5V3Z" transform="translate(-89.564 -1.519)" fill="#fff"/>
      <path id="Path_9343" data-name="Path 9343" d="M248.366,42.252l4.425,2.95a12.923,12.923,0,0,1-10.818,5.754A12.7,12.7,0,0,1,229.09,37.973c0-7.721,5.555-12.983,12.246-12.983,6.738,0,10.033,5.362,11.11,8.26l.591,1.475-17.356,7.188a6.608,6.608,0,0,0,6.293,3.934,7.41,7.41,0,0,0,6.392-3.594Zm-13.621-4.671,11.6-4.818a5.027,5.027,0,0,0-4.818-2.751A7.122,7.122,0,0,0,234.745,37.581Z" transform="translate(-95.199 -10.637)" fill="#fff"/>
      <path id="Path_9344" data-name="Path 9344" d="M20.807,24.435V18.927H39.369a18.251,18.251,0,0,1,.275,3.325c0,4.133-1.13,9.243-4.771,12.884-3.541,3.688-8.066,5.655-14.06,5.655A20.443,20.443,0,0,1,.36,20.63,20.443,20.443,0,0,1,20.813.47,19.21,19.21,0,0,1,34.627,6.025L30.74,9.912a14.041,14.041,0,0,0-9.934-3.934A14.461,14.461,0,0,0,6.348,20.63,14.461,14.461,0,0,0,20.807,35.282a13.487,13.487,0,0,0,10.18-4.033,11.417,11.417,0,0,0,2.985-6.82Z" transform="translate(-0.36 -0.47)" fill="#fff"/>
    </g>
    <g id="Group_7528" data-name="Group 7528" transform="translate(297 318.418)">
      <path id="Path_9333" data-name="Path 9333" d="M10.779,0,8.234,7.831H0l6.662,4.84L4.117,20.5l6.662-4.84,6.662,4.84L14.9,12.671l6.662-4.84H13.323Z" transform="translate(0.001 1.254)" fill="#fcd010"/>
      <path id="Path_9334" data-name="Path 9334" d="M121.744,0,119.2,7.831h-8.235l6.662,4.84L115.083,20.5l6.662-4.84,6.662,4.84-2.544-7.832,6.662-4.84h-8.235Z" transform="translate(-85.634 1.254)" fill="#fcd010"/>
      <path id="Path_9335" data-name="Path 9335" d="M232.71,0l-2.545,7.831H221.93l6.662,4.84L226.048,20.5l6.662-4.84,6.662,4.84-2.545-7.832,6.662-4.84h-8.235Z" transform="translate(-171.268 1.254)" fill="#fcd010"/>
      <path id="Path_9336" data-name="Path 9336" d="M343.674,0,341.13,7.831H332.9l6.662,4.84L337.013,20.5l6.662-4.84,6.662,4.84-2.545-7.832,6.662-4.84h-8.235Z" transform="translate(-256.901 1.254)" fill="#fcd010"/>
      <path id="Path_9337" data-name="Path 9337" d="M454.64,0,452.1,7.831h-8.235l6.662,4.84L447.978,20.5l6.662-4.84L461.3,20.5l-2.544-7.832,6.662-4.84h-8.235Z" transform="translate(-342.535 1.254)" fill="#fcd010"/>
    </g>
    <path id="Path_9418" data-name="Path 9418" d="M4.04,0H6.9V-13.34H4.42L.22-9.12l1.62,1.7,2.2-2.26ZM9.2-1.76a6.655,6.655,0,0,0,5.14,2c3.22,0,5.34-1.78,5.34-4.6a4.153,4.153,0,0,0-4.28-4.3,4.6,4.6,0,0,0-3,1.1V-10.9h6.38v-2.44H9.62v7.62l1.98.54a3.845,3.845,0,0,1,2.8-1.1c1.52,0,2.4.82,2.4,2.04,0,1.1-.9,2-2.48,2a4.871,4.871,0,0,1-3.56-1.44Zm11.86-4.9c0,3.44,1.7,6.9,5.52,6.9,3.8,0,5.52-3.46,5.52-6.9s-1.72-6.88-5.52-6.88C22.76-13.54,21.06-10.1,21.06-6.66Zm8.14,0c0,2.46-.72,4.38-2.62,4.38-1.92,0-2.64-1.92-2.64-4.38s.72-4.36,2.64-4.36C28.48-11.02,29.2-9.12,29.2-6.66Zm9.5.7h3.58V-7.54H38.7v-3.9H36.96v3.9h-3.6v1.58h3.6V-1.9H38.7ZM56.84,0H60.1l-3-5.08a3.828,3.828,0,0,0,2.92-3.96,4.154,4.154,0,0,0-4.48-4.3H49.3V0h2.84V-4.78h2.08Zm.28-9.06a1.841,1.841,0,0,1-2,1.84H52.14V-10.9h2.98A1.841,1.841,0,0,1,57.12-9.06Zm3.76,4.22A4.892,4.892,0,0,0,66.04.24,5.954,5.954,0,0,0,70.02-1.1L68.9-2.74a3.95,3.95,0,0,1-2.58.96,2.6,2.6,0,0,1-2.78-2.24h7.18v-.56c0-3.16-1.96-5.32-4.84-5.32A4.916,4.916,0,0,0,60.88-4.84Zm5-3.04a2.238,2.238,0,0,1,2.38,2.14H63.5A2.321,2.321,0,0,1,65.88-7.88ZM75.06,0H77.8l3.88-9.66H78.94L76.42-2.94,73.9-9.66H71.18Zm9.02-11.08A1.519,1.519,0,0,0,85.6-12.6a1.519,1.519,0,0,0-1.52-1.52,1.532,1.532,0,0,0-1.52,1.52A1.532,1.532,0,0,0,84.08-11.08ZM82.82,0h2.54V-9.66H82.82Zm4.44-4.84A4.892,4.892,0,0,0,92.42.24,5.953,5.953,0,0,0,96.4-1.1L95.28-2.74a3.95,3.95,0,0,1-2.58.96,2.6,2.6,0,0,1-2.78-2.24H97.1v-.56c0-3.16-1.96-5.32-4.84-5.32A4.916,4.916,0,0,0,87.26-4.84Zm5-3.04a2.238,2.238,0,0,1,2.38,2.14H89.88A2.321,2.321,0,0,1,92.26-7.88ZM107.42,0h2.7l2.94-9.66h-2.64l-1.8,6.5-2.12-6.5h-2.26l-2.12,6.5-1.8-6.5H97.68L100.62,0h2.72l2.04-6.58Zm6.06-1.26A6.5,6.5,0,0,0,117.8.24c2.68,0,4.18-1.32,4.18-3.1,0-2.4-2.22-2.84-3.88-3.16-1.08-.22-1.84-.44-1.84-1.04,0-.56.6-.9,1.52-.9a4.075,4.075,0,0,1,2.86,1.12l1-1.74a6.07,6.07,0,0,0-3.88-1.32c-2.54,0-3.96,1.42-3.96,3.04,0,2.3,2.14,2.7,3.8,3.02,1.1.22,1.94.46,1.94,1.14,0,.6-.52.98-1.62.98a5.529,5.529,0,0,1-3.34-1.32Z" transform="translate(297 367)" fill="#fcd010"/>
  </g>
</svg>
